# xmcd
#
# Track frame offsets:
#	150
#	4824
#	27020
#	46412
#	67122
#	80925
#	100711
#	121192
#	142510
#	160032
#
# Disc length: 2331 seconds
#
# Revision: 1
# Processed by: cddbd v1.5.1PL0 Copyright (c) Steve Scherf et al.
# Submitted via: audiograbber 1.81.01
#
DISCID=7409190a
DTITLE=Imo - Right In Time
DYEAR=2005
DGENRE=
TTITLE0=Fountains Of Wayne - Yours And Mine
TTITLE1=Golden Smog - Until You Came Along
TTITLE2=Graham Parker - The Rest Is History
TTITLE3=Lucinda Williams - Right In Time
TTITLE4=The Proclaimers - There's A Touch
TTITLE5=Iron and Wine - Bird Stealing Bread
TTITLE6=Yo La Tengo - Tears Are In Your Eyes
TTITLE7=Wilco - She's A Jar
TTITLE8=Michael Heaton - Irene's Waltz
TTITLE9=Tom Jones - The Nearness Of You
EXTD=For Ann.
EXTT0=
EXTT1=
EXTT2=
EXTT3=
EXTT4=
EXTT5=
EXTT6=
EXTT7=
EXTT8=
EXTT9=
PLAYORDER=
